<svg width="18" height="18" viewBox="0 0 8 8" fill="none" xmlns="http://www.w3.org/2000/svg">
<path d="M4.92821 4.00016L7.52586 1.40251C7.64915 1.27944 7.7185 1.11244 7.71865 0.938242C7.7188 0.764045 7.64975 0.596923 7.52669 0.473638C7.40362 0.350354 7.23662 0.281007 7.06242 0.280854C6.88823 0.2807 6.7211 0.349751 6.59782 0.472818L4.00016 3.07047L1.40251 0.472818C1.27922 0.349534 1.11201 0.280273 0.937662 0.280273C0.763312 0.280273 0.596102 0.349534 0.472818 0.472818C0.349534 0.596102 0.280273 0.763312 0.280273 0.937662C0.280273 1.11201 0.349534 1.27922 0.472818 1.40251L3.07047 4.00016L0.472818 6.59782C0.349534 6.7211 0.280273 6.88831 0.280273 7.06266C0.280273 7.23701 0.349534 7.40422 0.472818 7.52751C0.596102 7.65079 0.763312 7.72005 0.937662 7.72005C1.11201 7.72005 1.27922 7.65079 1.40251 7.52751L4.00016 4.92985L6.59782 7.52751C6.7211 7.65079 6.88831 7.72005 7.06266 7.72005C7.23701 7.72005 7.40422 7.65079 7.52751 7.52751C7.65079 7.40422 7.72005 7.23701 7.72005 7.06266C7.72005 6.88831 7.65079 6.7211 7.52751 6.59782L4.92821 4.00016Z" fill="url(#paint0_linear_1646_26)"/>
<defs>
<linearGradient id="paint0_linear_1646_26" x1="0.280273" y1="4.00016" x2="7.72005" y2="4.00016" gradientUnits="userSpaceOnUse">
<stop stop-color="#4C36C2"/>
<stop offset="1" stop-color="#C55ADA"/>
</linearGradient>
</defs>
</svg>
